<?xml version="1.0" encoding="UTF-8"?>
<svg version="1.1" xmlns="http://www.w3.org/2000/svg" xmlns:xlink="http://www.w3.org/1999/xlink" x="0px" y="0px" viewBox="0 0 47.9 47.9" enable-background="new 0 0 47.9 47.9" xml:space="preserve">
    <path fill="#c6c6c6" d="M48,13.3c0-5.1-2.3-9-6.7-11.6c-2-1.2-4.1-1.6-6.4-1.7C27.6,0,20.4,0,13.1,0c-5.6,0.1-9.6,2.8-12,7.8  c-0.6,1.2-0.8,2.4-1,3.7c0,0.2-0.1,0.3-0.1,0.5C0,20,0,28,0,35.9c0.1,0.7,0.2,1.5,0.4,2.2c1.5,5.2,4.9,8.4,10.2,9.7  c0.5,0.1,1,0.2,1.5,0.2c7.9,0,15.9,0,23.8,0c0.7-0.1,1.5-0.2,2.2-0.4c5.2-1.5,8.4-4.9,9.6-10.1c0.2-0.9,0.2-1.8,0.2-2.7  C48,27.6,48,20.4,48,13.3z M39.4,16.5h-0.5c-1.9,0-3.8,0-5.7,0c-0.6,0-1.1,0.2-1.4,0.7c-0.2,0.4-0.3,0.7-0.4,1.1c-0.1,1,0,2,0,3  c0,0.1,0,0.2,0,0.4h7.9v8h-7.9V48h-7.5V29.9h-0.5c-1.6,0-3.3,0-4.9,0c-0.3,0-0.4-0.1-0.4-0.4c0-2.4,0-4.8,0-7.2  c0-0.3,0.1-0.4,0.4-0.4c1.7,0,3.4,0,5.1,0H24c0-1,0-1.9,0-2.8c-0.1-3.3,1.3-6.5,3.9-8.6c1.2-1.1,2.8-1.8,4.4-1.9  c2.3-0.1,4.7,0,7-0.1c0,0,0.1,0,0.1,0V16.5z"/>
</svg>